<?xml version="1.0" encoding="utf-8"?>
<!-- Generator: Adobe Illustrator 22.1.0, SVG Export Plug-In . SVG Version: 6.00 Build 0)  -->
<svg version="1.1" id="Layer_1" xmlns="http://www.w3.org/2000/svg" xmlns:xlink="http://www.w3.org/1999/xlink" x="0px" y="0px"
	 viewBox="0 0 116.4 122.8" style="enable-background:new 0 0 116.4 122.8;" xml:space="preserve">
<style type="text/css">
	.st0{fill:#E9C961;}
	.st1{fill:#FFFFFF;}
	.st2{fill:#735441;stroke:#735441;stroke-width:1.4934;stroke-miterlimit:10;}
	.st3{fill:none;}
</style>
<g>
	<path class="st0" d="M58.4,73.8v-0.7C58.4,73.4,58.4,73.6,58.4,73.8z"/>
	<g>
		<path class="st1" d="M51.2,92.9c2.5-0.5,5-0.8,7.7-0.8c2.3,0,4.5,0.2,6.7,0.6"/>
		<path class="st2" d="M51.6,94.9l-0.8-4.1c5-1,10.2-1.1,15.2-0.2l-0.7,4.1C60.8,94,56.1,94,51.6,94.9z"/>
	</g>
	<g>
		<g>
			<path class="st3" d="M49.9,96.2c-0.5-3.8-10.3-6.9-21.4-6.9c-8.6,0-15.1,2-15.8,4.9c-0.3,1.2-0.5,2.4-0.6,3.6c0,0.6,0,1.2,0,1.8
				c0.4,9.7,8.1,17.6,17.9,18.2c9.7,0.5,18-6.2,19.7-15.4c0.2-0.8,0.3-1.7,0.3-2.5c0-0.9,0-1.8,0-2.7C49.9,96.8,49.9,96.5,49.9,96.2
				z"/>
			<path class="st2" d="M48.2,87c-3.8-1.7-9.7-2.8-17.5-3.4c-3-0.2-6-0.3-9.2-0.3c-11,0-19.1,1.3-19.2,1.3c-0.3,0-0.4,0.3-0.4,0.5
				v5.6c0,0.3,0.2,0.5,0.5,0.5v0c5.5,0.8,6.5,5.2,6.5,7.7c0.1,11.5,9.2,21.2,20.8,21.8c0.4,0,0.8,0,1.3,0c11.7,0,21.4-9.2,22-20.9
				c0-0.3,0-0.5,0-0.8c0.7-1.2,1.1-2.6,1.1-4.1C54.2,93.1,53.5,89.3,48.2,87z M50,99.9c0,0.9-0.2,1.7-0.3,2.5
				c-1.8,9.2-10,15.9-19.7,15.4c-9.8-0.6-17.5-8.5-17.9-18.2c0-0.6,0-1.2,0-1.8c0.1-1.2,0.3-2.4,0.6-3.6c0.7-2.9,7.2-4.9,15.8-4.9
				c11.1,0,20.9,3.2,21.4,6.9c0,0.3,0.1,0.6,0.1,1C50,98.1,50.1,99,50,99.9z"/>
		</g>
		<g>
			<path class="st3" d="M66.9,96.2c0.5-3.8,10.3-6.9,21.4-6.9c8.6,0,15.1,2,15.8,4.9c0.3,1.2,0.5,2.4,0.6,3.6c0,0.6,0,1.2,0,1.8
				c-0.4,9.7-8.1,17.6-17.9,18.2c-9.7,0.5-18-6.2-19.7-15.4c-0.2-0.8-0.3-1.7-0.3-2.5c0-0.9,0-1.8,0-2.7
				C66.8,96.8,66.9,96.5,66.9,96.2z"/>
			<path class="st2" d="M62.6,95.1c0,1.5,0.4,2.9,1.1,4.1c0,0.3,0,0.5,0,0.8c0.7,11.7,10.3,20.9,22,20.9c0.4,0,0.8,0,1.3,0
				c11.7-0.7,20.7-10.3,20.8-21.8c0-2.5,1-6.9,6.5-7.7v0c0.3,0,0.5-0.3,0.5-0.5v-5.6c0-0.3-0.2-0.5-0.5-0.5c-0.1,0-8.2-1.3-19.2-1.3
				c-3.1,0-6.2,0.1-9.2,0.3c-7.8,0.5-13.7,1.7-17.5,3.4C63.3,89.3,62.6,93.1,62.6,95.1z M66.8,97.2c0-0.3,0.1-0.7,0.1-1
				c0.5-3.8,10.3-6.9,21.4-6.9c8.6,0,15.1,2,15.8,4.9c0.3,1.2,0.5,2.4,0.6,3.6c0,0.6,0,1.2,0,1.8c-0.4,9.7-8.1,17.6-17.9,18.2
				c-9.7,0.5-18-6.2-19.7-15.4c-0.2-0.8-0.3-1.7-0.3-2.5C66.7,99,66.7,98.1,66.8,97.2z"/>
		</g>
	</g>
	<path class="st0" d="M101.6,28.6c-5.2-6-11.7-10.7-19-13.9c-3-1.8-6.1-4.2-7.4-7.8c-0.1-0.2-0.3-0.3-0.5-0.3
		c-0.2,0-0.4,0.2-0.4,0.4c0,0.1-0.2,1.8,0.2,4.1c-3.5-2-7.3-4.7-8.8-9c-0.1-0.2-0.3-0.4-0.5-0.3c-0.2,0-0.4,0.2-0.4,0.4
		c0,0.2-0.2,2.8,0.5,6.3c-2.6-2.1-4.7-4.6-6.4-7.5c-0.1-0.2-0.3-0.3-0.5-0.2c-0.2,0-0.4,0-0.5,0.2c-1.6,2.9-3.8,5.4-6.3,7.5
		c0.8-3.5,0.5-6.1,0.5-6.2c0-0.2-0.2-0.4-0.4-0.4c-0.2,0-0.4,0.1-0.5,0.3c-1.5,4.3-5.3,7-8.8,9c0.3-2.3,0.2-4,0.2-4.1
		c0-0.2-0.2-0.4-0.4-0.4c-0.2,0-0.4,0.1-0.5,0.3c-1.3,3.6-4.4,6-7.4,7.8c-7.3,3.3-13.8,8-19,13.9C4,41.4-0.6,58.9,1.9,79.2
		c0,0.1,0.1,0.2,0.2,0.3c0.1,0.1,0.2,0.1,0.3,0.1c0,0,0,0,0.1,0l2.8-0.4c0.2,0,0.4-0.2,0.4-0.4c0-0.2,0-0.5,0-1
		C5,55.4,11.1,44.4,16.4,39c3.8-3.9,8.6-6.3,14.2-7.1c0.4,0,1.1-0.1,1.9-0.1c4,0,11.6,1.3,17.6,9.7c0.1,0.1,0.2,0.2,0.4,0.2
		c0,0,0.1,0,0.1,0c0.2,0,0.3-0.2,0.3-0.4c0-0.1,0.2-2.1-0.5-5c3.1,2.2,5.7,5,7.6,8.4c0,0,0,0,0,0c0,0,0.1,0.1,0.1,0.1c0,0,0,0,0,0
		c0,0,0.1,0,0.1,0.1c0,0,0,0,0,0c0,0,0,0,0,0c0,0,0,0,0,0c0,0,0,0,0,0c0,0,0,0,0,0c0,0,0,0,0,0c0.2,0,0.4,0,0.5-0.2
		c1.9-3.4,4.5-6.2,7.5-8.4c-0.8,2.9-0.5,4.9-0.5,5c0,0.2,0.2,0.3,0.3,0.4c0,0,0.1,0,0.1,0c0.1,0,0.3-0.1,0.4-0.2
		c5.9-8.4,13.6-9.7,17.6-9.7c0.8,0,1.5,0.1,1.9,0.1c5.7,0.9,10.4,3.2,14.2,7.1c5.2,5.4,11.3,16.4,10.8,38.7c0,0.5,0,0.9,0,1
		c0,0.2,0.2,0.4,0.4,0.4l2.8,0.4c0,0,0,0,0.1,0c0.1,0,0.2,0,0.3-0.1c0.1-0.1,0.2-0.2,0.2-0.3C117.3,58.9,112.8,41.4,101.6,28.6z"/>
</g>
</svg>
