<svg id="Layer_1" xmlns="http://www.w3.org/2000/svg" viewBox="0 0 304 219.8"><style>.st0{fill:#e9ca61}.st2{fill:#735541;stroke:#735541;stroke-width:1.4934;stroke-miterlimit:10}.st3{fill:none}</style><path class="st0" d="M152 73.1v-.7.7z"/><path d="M144.8 92.1c2.5-.5 5-.8 7.7-.8 2.3 0 4.5.2 6.7.6" fill="#fff"/><path class="st2" d="M145.2 94.2l-.8-4.1c5-1 10.2-1.1 15.2-.2l-.7 4.1c-4.5-.8-9.2-.7-13.7.2z"/><path class="st3" d="M143.5 95.4c-.5-3.8-10.3-6.9-21.4-6.9-8.6 0-15.1 2-15.8 4.9-.3 1.2-.5 2.4-.6 3.6v1.8c.4 9.7 8.1 17.6 17.9 18.2 9.7.5 18-6.2 19.7-15.4.2-.8.3-1.7.3-2.5v-2.7c-.1-.3-.1-.6-.1-1z"/><path class="st2" d="M141.8 86.2c-3.8-1.7-9.7-2.8-17.5-3.4-3-.2-6-.3-9.2-.3-11 0-19.1 1.3-19.2 1.3-.3 0-.4.3-.4.5V90c0 .3.2.5.5.5 5.5.8 6.5 5.2 6.5 7.7.1 11.5 9.2 21.2 20.8 21.8h1.3c11.7 0 21.4-9.2 22-20.9v-.8c.7-1.2 1.1-2.6 1.1-4.1.1-1.9-.7-5.6-5.9-8zm1.8 12.9c0 .9-.2 1.7-.3 2.5-1.8 9.2-10 15.9-19.7 15.4-9.8-.6-17.5-8.5-17.9-18.2V97c.1-1.2.3-2.4.6-3.6.7-2.9 7.2-4.9 15.8-4.9 11.1 0 20.9 3.2 21.4 6.9 0 .3.1.6.1 1 0 .9.1 1.8 0 2.7z"/><path class="st3" d="M160.5 95.4c.5-3.8 10.3-6.9 21.4-6.9 8.6 0 15.1 2 15.8 4.9.3 1.2.5 2.4.6 3.6v1.8c-.4 9.7-8.1 17.6-17.9 18.2-9.7.5-18-6.2-19.7-15.4-.2-.8-.3-1.7-.3-2.5v-2.7c0-.3.1-.6.1-1z"/><path class="st2" d="M156.2 94.4c0 1.5.4 2.9 1.1 4.1v.8c.7 11.7 10.3 20.9 22 20.9h1.3c11.7-.7 20.7-10.3 20.8-21.8 0-2.5 1-6.9 6.5-7.7.3 0 .5-.3.5-.5v-5.6c0-.3-.2-.5-.5-.5-.1 0-8.2-1.3-19.2-1.3-3.1 0-6.2.1-9.2.3-7.8.5-13.7 1.7-17.5 3.4-5.1 2.1-5.8 5.8-5.8 7.9zm4.2 2c0-.3.1-.7.1-1 .5-3.8 10.3-6.9 21.4-6.9 8.6 0 15.1 2 15.8 4.9.3 1.2.5 2.4.6 3.6v1.8c-.4 9.7-8.1 17.6-17.9 18.2-9.7.5-18-6.2-19.7-15.4-.2-.8-.3-1.7-.3-2.5-.1-.9-.1-1.8 0-2.7z"/><path class="st0" d="M195.2 27.9c-5.2-6-11.7-10.7-19-13.9-3-1.8-6.1-4.2-7.4-7.8-.1-.2-.3-.3-.5-.3s-.4.2-.4.4c0 .1-.2 1.8.2 4.1-3.5-2-7.3-4.7-8.8-9-.1-.3-.3-.4-.6-.4-.2 0-.4.2-.4.4s-.2 2.8.5 6.3c-2.6-2.1-4.7-4.6-6.4-7.5 0-.2-.2-.2-.4-.2s-.4 0-.5.2c-1.6 2.9-3.8 5.4-6.3 7.5.8-3.5.5-6.1.5-6.2 0-.2-.2-.4-.4-.4s-.4.1-.5.3c-1.5 4.3-5.3 7-8.8 9 .3-2.3.2-4 .2-4.1 0-.2-.2-.4-.4-.4s-.4.1-.5.3c-1.3 3.6-4.4 6-7.4 7.8-7.3 3.3-13.8 8-19 13.9C97.6 40.6 93 58.1 95.5 78.5c0 .1.1.2.2.3.1.1.2.1.3.1h.1l2.8-.4c.2 0 .4-.2.4-.4v-1c-.5-22.3 5.6-33.3 10.8-38.7 3.8-3.9 8.6-6.3 14.2-7.1.4 0 1.1-.1 1.9-.1 4 0 11.6 1.3 17.6 9.7.1.1.2.2.4.2h.1c.2 0 .3-.2.3-.4 0-.1.2-2.1-.5-5 3.1 2.2 5.7 5 7.6 8.4l.1.1s.1 0 .1.1c.2 0 .4 0 .5-.2 1.9-3.4 4.5-6.2 7.5-8.4-.8 2.9-.5 4.9-.5 5 0 .2.2.3.3.4h.1c.1 0 .3-.1.4-.2 5.9-8.4 13.6-9.7 17.6-9.7.8 0 1.5.1 1.9.1 5.7.9 10.4 3.2 14.2 7.1 5.2 5.4 11.3 16.4 10.8 38.7v1c0 .2.2.4.4.4l2.8.4h.1c.1 0 .2 0 .3-.1.1-.1.2-.2.2-.3 2.4-20.4-2.1-37.9-13.3-50.6z"/><path d="M45.7 148.3c0 1.3-1 2.4-2.4 2.4h-1.9l-7.8 26.7c-.7 2.4-3.8 2.4-4.5 0l-5.9-20.2-5.9 20.2c-.7 2.4-3.8 2.5-4.6 0l-8-26.7H2.4c-1.3 0-2.4-1.1-2.4-2.4s1-2.4 2.4-2.4h8.2c1.4 0 2.4 1.1 2.4 2.4s-1 2.4-2.4 2.4h-1l5.4 17.8 5.9-20.3c.7-2.4 3.8-2.4 4.6 0l5.9 20.3 5.1-17.7h-1.3c-1.4 0-2.4-1.1-2.4-2.4s1-2.4 2.4-2.4h8.2c1.3-.1 2.3 1 2.3 2.3zm42.1 28.1c0 1.3-1 2.3-2.3 2.3H77c-1.3 0-2.4-1.1-2.4-2.3 0-1.3 1.1-2.4 2.4-2.4h1l-2.5-5.5H62.3l-2.5 5.5h1c1.3 0 2.3 1.1 2.3 2.4 0 1.3-1.1 2.3-2.3 2.3h-8.5c-1.3 0-2.3-1.1-2.3-2.3 0-1.3 1-2.4 2.3-2.4h2.3l2.5-5.5h-.2c-1.3 0-2.3-1-2.3-2.4 0-1.3 1-2.3 2.3-2.3h2.4l6-13.4h-.5c-1.3 0-2.3-1-2.3-2.3 0-1.3 1-2.4 2.3-2.4h8.5c1.3 0 2.4 1.1 2.4 2.4 0 1.3-1 2.3-2.4 2.3h-.5l6 13.4H81c1.3 0 2.3 1.1 2.3 2.3 0 1.3-1 2.4-2.3 2.4h-.2l2.5 5.5h2.3c1.2 0 2.2 1.1 2.2 2.4zm-14.4-12.6l-4.5-10.2-4.5 10.2h9zm61.8 12.6c0 1.3-1.1 2.3-2.4 2.3h-8.3c-1.3 0-2.4-1-2.4-2.3 0-1.3 1.1-2.4 2.4-2.4h1.7v-18.6l-7.1 9.5c-.9 1.2-2.8 1.3-3.8.1l-8.3-10v19.1h1.7c1.3 0 2.4 1 2.4 2.4 0 1.3-1 2.3-2.4 2.3h-8.2c-1.3 0-2.3-1-2.3-2.3 0-1.3 1-2.4 2.3-2.4h1.7v-23.3h-1.7c-1.3 0-2.3-1-2.3-2.4 0-1.3 1-2.3 2.3-2.3h4c.7 0 1.4.3 1.8.8l10.8 12.9 9.5-12.7c.5-.7 1.1-1 2-1h4.2c1.3 0 2.4 1 2.4 2.3 0 1.3-1.1 2.4-2.4 2.4H131v23.3h1.9c1.3 0 2.3 1 2.3 2.3zm44.4-7c0 5.2-4.2 9.4-9.4 9.4H150c-1.3 0-2.3-1.1-2.3-2.3 0-1.3 1.1-2.4 2.3-2.4h2.2v-9.3H150c-1.3 0-2.3-1-2.3-2.3 0-1.3 1.1-2.4 2.3-2.4h2.2v-9.4H150c-1.3 0-2.3-1-2.3-2.4 0-1.3 1.1-2.3 2.3-2.3h18.8c5.2 0 9.4 4.3 9.4 9.5 0 2.6-1.2 5.1-3.4 6.5 2.9 1.4 4.8 4.1 4.8 7.4zm-22.7-9.4h11.9c2.6 0 4.7-2.1 4.7-4.6 0-2.6-2.1-4.8-4.7-4.8h-11.9v9.4zm17.9 9.4c0-2.5-2.1-4.7-4.6-4.7H157v9.3h13.2c2.5 0 4.6-2 4.6-4.6zm49.3 7c0 1.3-1 2.3-2.3 2.3h-8.5c-1.3 0-2.4-1.1-2.4-2.3 0-1.3 1.1-2.4 2.4-2.4h1l-2.5-5.5h-13.3L196 174h1c1.3 0 2.4 1.1 2.4 2.4 0 1.3-1.1 2.3-2.4 2.3h-8.5c-1.3 0-2.3-1.1-2.3-2.3 0-1.3 1-2.4 2.3-2.4h2.3l2.5-5.5h-.2c-1.3 0-2.4-1-2.4-2.4 0-1.3 1-2.3 2.4-2.3h2.3l6-13.4h-.4c-1.3 0-2.4-1-2.4-2.3 0-1.3 1-2.4 2.4-2.4h8.5c1.3 0 2.4 1.1 2.4 2.4 0 1.3-1 2.3-2.4 2.3h-.5l6 13.4h2.3c1.3 0 2.4 1.1 2.4 2.3 0 1.3-1 2.4-2.4 2.4h-.3l2.5 5.5h2.3c1.3 0 2.3 1.1 2.3 2.4zm-14.3-12.6l-4.5-10.2-4.5 10.2h9zm35.3 15c-21.5 0-21.5-32.9 0-32.9H257c1.3 0 2.4 1.1 2.4 2.3v4.9c0 1.3-1 2.4-2.4 2.4-1.3 0-2.3-1.1-2.3-2.4v-2.5h-9.5c-15.3 0-15.3 23.4 0 23.4h11.9c1.3 0 2.4 1.1 2.4 2.4 0 1.3-1 2.3-2.4 2.3h-12zm58.9-2.4c0 1.3-1.1 2.3-2.4 2.3h-9.1c-1.3 0-2.3-1.1-2.3-2.3 0-1.3 1.1-2.4 2.3-2.4h1.9v-9.5h-15.7v9.5h2.2c1.3 0 2.4 1 2.4 2.4 0 1.3-1 2.3-2.4 2.3h-9c-1.3 0-2.3-1.1-2.3-2.3 0-1.3 1-2.4 2.3-2.4h2.2v-9.5h-2.2c-1.3 0-2.3-1-2.3-2.3 0-1.3 1-2.3 2.3-2.3h2.2v-9.3h-2.2c-1.3 0-2.3-1-2.3-2.4 0-1.3 1-2.3 2.3-2.3h9c1.3 0 2.4 1.1 2.4 2.3 0 1.3-1 2.4-2.4 2.4h-2.2v9.3h15.7v-9.3h-2.2c-1.3 0-2.4-1-2.4-2.4 0-1.3 1-2.3 2.4-2.3h9c1.3 0 2.4 1.1 2.4 2.3 0 1.3-1 2.4-2.4 2.4H299v9.3h2.2c1.3 0 2.3 1 2.3 2.3 0 1.3-1 2.3-2.3 2.3H299v9.5h2.5c1.4.1 2.5 1.1 2.5 2.4zM48.6 219.7h-.9l-3.3-9.7-3.1 9.7h-.9L37.1 205h2.4l1.8 9.2 2.8-9.3h.8l2.9 9.2 1.7-9.1h2.3l-3.2 14.7zm10.6-.1V205h7.2v2.1h-4.9v4h4.4v2h-4.4v4.4h4.9v2.1h-7.2zm18.3.1c-.9 0-2.1-.1-3-.2v-14.4c.9-.1 2.1-.2 2.9-.2 3.4 0 4.9 1.9 4.9 3.8 0 1.5-.7 2.7-2.1 3.4 1.6.6 2.4 1.9 2.4 3.5 0 2.3-1.7 4.1-5.1 4.1zm.3-12.8c-.3 0-.7 0-1 .1v4.3h1c1.6 0 2.4-.9 2.4-2.2-.1-1.4-1-2.2-2.4-2.2zm-.1 6.1c-.3 0-.8 0-1 .1v4.6c.3 0 .7.1 1.2.1 1.5 0 2.4-.8 2.4-2.4 0-1.4-1-2.4-2.6-2.4zm25.1 6.7c-1.1 0-2-.1-3-.2V205c1-.1 1.9-.2 2.9-.2 4.5 0 6.8 3.1 6.8 7.3.1 4.4-2.2 7.6-6.7 7.6zm.3-12.8c-.4 0-.7 0-1 .1v10.6c.3 0 .6.1 1.1.1 2.6 0 4-2.1 4-5.5 0-3.2-1.5-5.3-4.1-5.3zm14.5 12.7V205h7.2v2.1h-4.9v4h4.4v2h-4.4v4.4h4.9v2.1h-7.2zm19.9.2h-1l-4.8-14.8h2.4l2.9 9.9 2.8-9.9h2.4l-4.7 14.8zm12.1-.2V205h7.2v2.1h-4.9v4h4.4v2h-4.4v4.4h4.9v2.1h-7.2zm15.3 0V205h2.2v12.5h4.7v2.1h-6.9zm18.7.2c-3.3 0-5.4-3.3-5.4-7.5s2.1-7.5 5.5-7.5c3.3 0 5.4 3.2 5.4 7.5.1 4.2-2.1 7.5-5.5 7.5zm.1-13c-1.9 0-3.1 2.2-3.1 5.5s1.2 5.6 3.1 5.6c1.9 0 3.1-2.3 3.1-5.6s-1.2-5.5-3.1-5.5zm16.7 7.9h-.9v4.9h-2.3v-14.5c.9-.1 1.8-.2 2.9-.2 3.6 0 5.2 2.3 5.2 4.9 0 2.6-1.7 4.9-4.9 4.9zm0-7.8c-.4 0-.6 0-1 .1v5.7c.3 0 .6.1.9.1 1.7 0 2.7-1.1 2.7-2.9 0-1.8-1-3-2.6-3zm21.7 12.7l-.2-8.6-3.2 6.3h-.4l-3.2-6.3-.1 8.6h-2.2l.5-14.7h.8l4.6 8.8 4.4-8.8h.8l.5 14.7h-2.3zm10.5 0V205h7.2v2.1h-4.9v4h4.4v2h-4.4v4.4h4.9v2.1h-7.2zm23.9.1l-6.4-9.1v9h-2.2v-14.7l.7-.1 6.3 9V205h2.2v14.7h-.6zm13.9-12.6v12.5h-2.2v-12.5h-3.3V205h8.9v2.1h-3.4zM23 219.2l-5.7-6.9 5.7-6.9 1.8 1.8-4.3 5.2 4.3 5.2-1.8 1.6zm264.8-13.8l5.7 6.9-5.7 6.9-1.8-1.8 4.3-5.2-4.3-5.2 1.8-1.6z" fill="#735541"/></svg>