<svg xmlns="http://www.w3.org/2000/svg" viewBox="0 0 304.4 74.1"><path d="M45.7 2.5c0 1.3-1 2.4-2.4 2.4h-1.9l-7.8 26.7c-.7 2.4-3.8 2.4-4.5 0l-5.9-20.2-5.9 20.2c-.7 2.4-3.8 2.5-4.6 0l-8-26.7H2.4C1.1 4.9 0 3.8 0 2.5S1 .1 2.4.1h8.2C12 .1 13 1.2 13 2.5s-1 2.4-2.4 2.4h-.9L15 22.7l5.9-20.3c.7-2.4 3.8-2.4 4.6 0l5.9 20.3L36.5 5h-1.3c-1.4 0-2.4-1.1-2.4-2.4s1-2.4 2.4-2.4h8.2c1.3-.1 2.3 1 2.3 2.3zm42.2 28.2c0 1.3-1 2.3-2.3 2.3h-8.5c-1.3 0-2.4-1.1-2.4-2.3 0-1.3 1.1-2.4 2.4-2.4h1l-2.5-5.5H62.4l-2.5 5.5h1c1.3 0 2.3 1.1 2.3 2.4 0 1.3-1.1 2.3-2.3 2.3h-8.5c-1.3 0-2.3-1.1-2.3-2.3 0-1.3 1-2.4 2.3-2.4h2.3l2.5-5.5H57c-1.3 0-2.3-1-2.3-2.4 0-1.3 1-2.3 2.3-2.3h2.4l6-13.4h-.5c-1.3 0-2.3-1-2.3-2.3 0-1.3 1-2.4 2.3-2.4h8.5c1.3 0 2.4 1.1 2.4 2.4 0 1.3-1 2.3-2.4 2.3h-.5l6 13.4H81c1.3 0 2.3 1.1 2.3 2.3 0 1.3-1 2.4-2.3 2.4h-.2l2.5 5.5h2.3c1.3 0 2.3 1.1 2.3 2.4zM73.5 18.1L69 7.9l-4.5 10.2h9zm61.8 12.6c0 1.3-1.1 2.3-2.4 2.3h-8.3c-1.3 0-2.4-1-2.4-2.3 0-1.3 1.1-2.4 2.4-2.4h1.7V9.7l-7.1 9.5c-.9 1.2-2.8 1.3-3.8.1l-8.5-10.2v19.1h1.7c1.3 0 2.4 1 2.4 2.4 0 1.3-1 2.3-2.4 2.3h-8.2c-1.3 0-2.3-1-2.3-2.3 0-1.3 1-2.4 2.3-2.4h1.7V5h-1.7c-1.3 0-2.3-1-2.3-2.4 0-1.3 1-2.3 2.3-2.3h4c.7 0 1.4.3 1.8.8L117 14l9.5-12.7c.5-.7 1.1-1 2-1h4.2c1.3 0 2.4 1 2.4 2.3 0 1.3-1.1 2.4-2.4 2.4h-1.9v23.3h1.9c1.5 0 2.6 1.1 2.6 2.4zm44.3-7.1c0 5.2-4.2 9.4-9.4 9.4h-20.1c-1.3 0-2.3-1.1-2.3-2.3 0-1.3 1.1-2.4 2.3-2.4h2.2V19h-2.2c-1.3 0-2.3-1-2.3-2.3 0-1.3 1.1-2.4 2.3-2.4h2.2V4.8h-2.2c-1.3 0-2.3-1-2.3-2.4 0-1.3 1.1-2.3 2.3-2.3h18.8c5.2 0 9.4 4.3 9.4 9.5 0 2.6-1.2 5.1-3.4 6.5 2.8 1.6 4.7 4.3 4.7 7.5zM157 14.3h11.9c2.6 0 4.7-2.1 4.7-4.6 0-2.6-2.1-4.8-4.7-4.8H157v9.4zm17.9 9.3c0-2.5-2.1-4.7-4.6-4.7H157v9.3h13.2c2.6.1 4.7-1.9 4.7-4.6zm49.3 7.1c0 1.3-1 2.3-2.3 2.3h-8.5c-1.3 0-2.4-1.1-2.4-2.3 0-1.3 1.1-2.4 2.4-2.4h1l-2.5-5.5h-13.3l-2.5 5.5h1c1.3 0 2.4 1.1 2.4 2.4 0 1.3-1.1 2.3-2.4 2.3h-8.5c-1.3 0-2.3-1.1-2.3-2.3 0-1.3 1-2.4 2.3-2.4h2.3l2.5-5.5h-.2c-1.3 0-2.4-1-2.4-2.4 0-1.3 1-2.3 2.4-2.3h2.3l6-13.4h-.5c-1.3 0-2.4-1-2.4-2.3 0-1.3 1-2.4 2.4-2.4h8.5c1.3 0 2.4 1.1 2.4 2.4 0 1.3-1 2.3-2.4 2.3h-.5l6 13.4h2.3c1.3 0 2.4 1.1 2.4 2.3 0 1.3-1 2.4-2.4 2.4h-.2l2.5 5.5h2.3c1.3 0 2.3 1.1 2.3 2.4zm-14.4-12.6l-4.5-10.2-4.5 10.2h9zM245.1 33c-21.5 0-21.5-32.9 0-32.9H257c1.3 0 2.4 1.1 2.4 2.3v4.9c0 1.3-1 2.4-2.4 2.4-1.3 0-2.3-1.1-2.3-2.4V4.8h-9.5c-15.3 0-15.3 23.4 0 23.4H257c1.3 0 2.4 1.1 2.4 2.4 0 1.3-1 2.3-2.4 2.3h-11.9zm59-2.3c0 1.3-1.1 2.3-2.4 2.3h-9.1c-1.3 0-2.3-1.1-2.3-2.3 0-1.3 1.1-2.4 2.3-2.4h1.9v-9.5h-15.7v9.5h2.2c1.3 0 2.4 1 2.4 2.4 0 1.3-1 2.3-2.4 2.3h-9c-1.3 0-2.3-1.1-2.3-2.3 0-1.3 1-2.4 2.3-2.4h2.2v-9.5H272c-1.3 0-2.3-1-2.3-2.3 0-1.3 1-2.3 2.3-2.3h2.2V4.8H272c-1.3 0-2.3-1-2.3-2.4 0-1.3 1-2.3 2.3-2.3h9c1.3 0 2.4 1.1 2.4 2.3 0 1.3-1 2.4-2.4 2.4h-2.2v9.3h15.7V4.8h-2.2c-1.3 0-2.4-1-2.4-2.4 0-1.3 1-2.3 2.4-2.3h9c1.3 0 2.4 1.1 2.4 2.3 0 1.3-1 2.4-2.4 2.4h-2.2v9.3h2.2c1.3 0 2.3 1 2.3 2.3 0 1.3-1 2.3-2.3 2.3h-2.2v9.5h2.5c1.4.1 2.5 1.2 2.5 2.5zM48.6 74h-.9l-3.3-9.7-3 9.7h-.9l-3.3-14.7h2.4l1.8 9.2 2.8-9.3h.8l2.9 9.2 1.7-9.1h2.3L48.6 74zm10.7-.2V59.2h7.2v2.1h-4.9v4H66v2h-4.4v4.4h4.9v2.1h-7.2zm18.3.2c-.9 0-2.1-.1-3-.2V59.3c.9-.1 2.1-.2 2.9-.2 3.4 0 4.9 1.9 4.9 3.8 0 1.5-.7 2.7-2.1 3.4 1.6.6 2.4 1.9 2.4 3.5 0 2.4-1.8 4.2-5.1 4.2zm.2-12.9c-.3 0-.7 0-1 .1v4.3h1c1.6 0 2.4-.9 2.4-2.2-.1-1.3-.9-2.2-2.4-2.2zm0 6.1c-.3 0-.8 0-1 .1v4.6c.3 0 .7.1 1.2.1 1.5 0 2.4-.8 2.4-2.4 0-1.4-1-2.4-2.6-2.4zm25.1 6.8c-1.1 0-2-.1-3-.2V59.3c1-.1 1.9-.2 2.9-.2 4.5 0 6.8 3.1 6.8 7.3 0 4.4-2.2 7.6-6.7 7.6zm.3-12.9c-.4 0-.7 0-1 .1v10.6c.3 0 .6.1 1.1.1 2.6 0 4-2.1 4-5.5 0-3.1-1.5-5.3-4.1-5.3zm14.4 12.7V59.2h7.2v2.1h-4.9v4h4.4v2h-4.4v4.4h4.9v2.1h-7.2zm20 .2h-1l-4.8-14.8h2.4l2.9 9.9 2.8-9.9h2.4L137.6 74zm12-.2V59.2h7.2v2.1h-4.9v4h4.4v2h-4.4v4.4h4.9v2.1h-7.2zm15.4 0V59.2h2.2v12.5h4.7v2.1H165zm18.7.3c-3.3 0-5.4-3.3-5.4-7.5s2.1-7.5 5.5-7.5c3.3 0 5.4 3.2 5.4 7.5 0 4.1-2.1 7.5-5.5 7.5zm.1-13.1c-1.9 0-3.1 2.2-3.1 5.5s1.2 5.6 3.1 5.6c1.9 0 3.1-2.3 3.1-5.6s-1.2-5.5-3.1-5.5zm16.6 8h-.9v4.9h-2.3V59.3c.9-.1 1.8-.2 2.9-.2 3.6 0 5.2 2.3 5.2 4.9.1 2.7-1.6 5-4.9 5zm.1-7.8c-.4 0-.6 0-1 .1V67c.3 0 .6.1.9.1 1.7 0 2.7-1.1 2.7-2.9 0-1.8-1-3-2.6-3zm21.6 12.6l-.2-8.6-3.2 6.3h-.4l-3.2-6.3-.1 8.6h-2.2l.5-14.7h.8l4.6 8.8 4.4-8.8h.8l.5 14.7h-2.3zm10.5 0V59.2h7.2v2.1h-4.9v4h4.4v2h-4.4v4.4h4.9v2.1h-7.2zm24 .2l-6.4-9.1v9H248V59.1l.7-.1 6.3 9v-8.8h2.2v14.7l-.6.1zm13.8-12.7v12.5h-2.2V61.3h-3.3v-2.1h8.9v2.1h-3.4zM23.1 73.5l-5.7-6.9 5.7-6.9 1.8 1.8-4.3 5.2 4.3 5.2-1.8 1.6zm264.8-13.9l5.7 6.9-5.7 6.9-1.8-1.8 4.3-5.2-4.3-5.2 1.8-1.6z" fill="#735441"/></svg>