<svg id="Layer_1" xmlns="http://www.w3.org/2000/svg" viewBox="0 0 116.4 122.8"><style>.st0{fill:#e9c961}.st2{fill:#735441;stroke:#735441;stroke-width:1.4934;stroke-miterlimit:10}.st3{fill:none}</style><path class="st0" d="M58.4 73.8v-.7.7z"/><path d="M51.2 92.9c2.5-.5 5-.8 7.7-.8 2.3 0 4.5.2 6.7.6" fill="#fff"/><path class="st2" d="M51.6 94.9l-.8-4.1c5-1 10.2-1.1 15.2-.2l-.7 4.1c-4.5-.7-9.2-.7-13.7.2z"/><path class="st3" d="M49.9 96.2c-.5-3.8-10.3-6.9-21.4-6.9-8.6 0-15.1 2-15.8 4.9-.3 1.2-.5 2.4-.6 3.6v1.8c.4 9.7 8.1 17.6 17.9 18.2 9.7.5 18-6.2 19.7-15.4.2-.8.3-1.7.3-2.5v-2.7c-.1-.4-.1-.7-.1-1z"/><path class="st2" d="M48.2 87c-3.8-1.7-9.7-2.8-17.5-3.4-3-.2-6-.3-9.2-.3-11 0-19.1 1.3-19.2 1.3-.3 0-.4.3-.4.5v5.6c0 .3.2.5.5.5 5.5.8 6.5 5.2 6.5 7.7.1 11.5 9.2 21.2 20.8 21.8H31c11.7 0 21.4-9.2 22-20.9V99c.7-1.2 1.1-2.6 1.1-4.1.1-1.8-.6-5.6-5.9-7.9zM50 99.9c0 .9-.2 1.7-.3 2.5-1.8 9.2-10 15.9-19.7 15.4-9.8-.6-17.5-8.5-17.9-18.2v-1.8c.1-1.2.3-2.4.6-3.6.7-2.9 7.2-4.9 15.8-4.9 11.1 0 20.9 3.2 21.4 6.9 0 .3.1.6.1 1 0 .9.1 1.8 0 2.7z"/><path class="st3" d="M66.9 96.2c.5-3.8 10.3-6.9 21.4-6.9 8.6 0 15.1 2 15.8 4.9.3 1.2.5 2.4.6 3.6v1.8c-.4 9.7-8.1 17.6-17.9 18.2-9.7.5-18-6.2-19.7-15.4-.2-.8-.3-1.7-.3-2.5v-2.7c0-.4.1-.7.1-1z"/><path class="st2" d="M62.6 95.1c0 1.5.4 2.9 1.1 4.1v.8c.7 11.7 10.3 20.9 22 20.9H87c11.7-.7 20.7-10.3 20.8-21.8 0-2.5 1-6.9 6.5-7.7.3 0 .5-.3.5-.5v-5.6c0-.3-.2-.5-.5-.5-.1 0-8.2-1.3-19.2-1.3-3.1 0-6.2.1-9.2.3-7.8.5-13.7 1.7-17.5 3.4-5.1 2.1-5.8 5.9-5.8 7.9zm4.2 2.1c0-.3.1-.7.1-1 .5-3.8 10.3-6.9 21.4-6.9 8.6 0 15.1 2 15.8 4.9.3 1.2.5 2.4.6 3.6v1.8c-.4 9.7-8.1 17.6-17.9 18.2-9.7.5-18-6.2-19.7-15.4-.2-.8-.3-1.7-.3-2.5-.1-.9-.1-1.8 0-2.7z"/><path class="st0" d="M101.6 28.6c-5.2-6-11.7-10.7-19-13.9-3-1.8-6.1-4.2-7.4-7.8-.1-.2-.3-.3-.5-.3s-.4.2-.4.4c0 .1-.2 1.8.2 4.1-3.5-2-7.3-4.7-8.8-9-.1-.2-.3-.4-.5-.3-.2 0-.4.2-.4.4s-.2 2.8.5 6.3c-2.6-2.1-4.7-4.6-6.4-7.5-.1-.2-.3-.3-.5-.2-.2 0-.4 0-.5.2-1.6 2.9-3.8 5.4-6.3 7.5.8-3.5.5-6.1.5-6.2 0-.2-.2-.4-.4-.4s-.4.1-.5.3c-1.5 4.3-5.3 7-8.8 9 .3-2.3.2-4 .2-4.1 0-.2-.2-.4-.4-.4s-.4.1-.5.3c-1.3 3.6-4.4 6-7.4 7.8-7.3 3.3-13.8 8-19 13.9C4 41.4-.6 58.9 1.9 79.2c0 .1.1.2.2.3.1.1.2.1.3.1h.1l2.8-.4c.2 0 .4-.2.4-.4v-1C5 55.4 11.1 44.4 16.4 39c3.8-3.9 8.6-6.3 14.2-7.1.4 0 1.1-.1 1.9-.1 4 0 11.6 1.3 17.6 9.7.1.1.2.2.4.2h.1c.2 0 .3-.2.3-.4 0-.1.2-2.1-.5-5 3.1 2.2 5.7 5 7.6 8.4l.1.1s.1 0 .1.1c.2 0 .4 0 .5-.2 1.9-3.4 4.5-6.2 7.5-8.4-.8 2.9-.5 4.9-.5 5 0 .2.2.3.3.4h.1c.1 0 .3-.1.4-.2 5.9-8.4 13.6-9.7 17.6-9.7.8 0 1.5.1 1.9.1 5.7.9 10.4 3.2 14.2 7.1 5.2 5.4 11.3 16.4 10.8 38.7v1c0 .2.2.4.4.4l2.8.4h.1c.1 0 .2 0 .3-.1.1-.1.2-.2.2-.3 2.5-20.2-2-37.7-13.2-50.5z"/></svg>