<svg version="1.1" id="Layer_1" 
  xmlns="http://www.w3.org/2000/svg" 
  xmlns:xlink="http://www.w3.org/1999/xlink" x="0px" y="0px" viewBox="0 0 304 219.8" style="enable-background:new 0 0 304 219.8;" xml:space="preserve">
  <style>
	.st1{fill:#FFFFFF;}
	.st3{fill:none;}
  </style>
  <g>
    <path class="logo-hair" d="M152,73.1v-0.7C152,72.6,152,72.8,152,73.1z"></path>
    <g>
      <path class="st1" d="M144.8,92.1c2.5-0.5,5-0.8,7.7-0.8c2.3,0,4.5,0.2,6.7,0.6"></path>
      <path class="logo-glasses" d="M145.2,94.2l-0.8-4.1c5-1,10.2-1.1,15.2-0.2l-0.7,4.1C154.4,93.2,149.7,93.3,145.2,94.2z"></path>
    </g>
    <g>
      <g>
        <path class="st3" d="M143.5,95.4c-0.5-3.8-10.3-6.9-21.4-6.9c-8.6,0-15.1,2-15.8,4.9c-0.3,1.2-0.5,2.4-0.6,3.6c0,0.6,0,1.2,0,1.8 c0.4,9.7,8.1,17.6,17.9,18.2c9.7,0.5,18-6.2,19.7-15.4c0.2-0.8,0.3-1.7,0.3-2.5c0-0.9,0-1.8,0-2.7 C143.5,96.1,143.5,95.8,143.5,95.4z"></path>
        <path class="logo-glasses" d="M141.8,86.2c-3.8-1.7-9.7-2.8-17.5-3.4c-3-0.2-6-0.3-9.2-0.3c-11,0-19.1,1.3-19.2,1.3 c-0.3,0-0.4,0.3-0.4,0.5V90c0,0.3,0.2,0.5,0.5,0.5v0c5.5,0.8,6.5,5.2,6.5,7.7c0.1,11.5,9.2,21.2,20.8,21.8c0.4,0,0.8,0,1.3,0 c11.7,0,21.4-9.2,22-20.9c0-0.3,0-0.5,0-0.8c0.7-1.2,1.1-2.6,1.1-4.1C147.8,92.3,147,88.6,141.8,86.2z M143.6,99.1 c0,0.9-0.2,1.7-0.3,2.5c-1.8,9.2-10,15.9-19.7,15.4c-9.8-0.6-17.5-8.5-17.9-18.2c0-0.6,0-1.2,0-1.8c0.1-1.2,0.3-2.4,0.6-3.6 c0.7-2.9,7.2-4.9,15.8-4.9c11.1,0,20.9,3.2,21.4,6.9c0,0.3,0.1,0.6,0.1,1C143.6,97.3,143.7,98.2,143.6,99.1z"></path>
      </g>
      <g>
        <path class="st3" d="M160.5,95.4c0.5-3.8,10.3-6.9,21.4-6.9c8.6,0,15.1,2,15.8,4.9c0.3,1.2,0.5,2.4,0.6,3.6c0,0.6,0,1.2,0,1.8 c-0.4,9.7-8.1,17.6-17.9,18.2c-9.7,0.5-18-6.2-19.7-15.4c-0.2-0.8-0.3-1.7-0.3-2.5c0-0.9,0-1.8,0-2.7 C160.4,96.1,160.5,95.8,160.5,95.4z"></path>
        <path class="logo-glasses" d="M156.2,94.4c0,1.5,0.4,2.9,1.1,4.1c0,0.3,0,0.5,0,0.8c0.7,11.7,10.3,20.9,22,20.9c0.4,0,0.8,0,1.3,0 c11.7-0.7,20.7-10.3,20.8-21.8c0-2.5,1-6.9,6.5-7.7v0c0.3,0,0.5-0.3,0.5-0.5v-5.6c0-0.3-0.2-0.5-0.5-0.5c-0.1,0-8.2-1.3-19.2-1.3 c-3.1,0-6.2,0.1-9.2,0.3c-7.8,0.5-13.7,1.7-17.5,3.4C156.9,88.6,156.2,92.3,156.2,94.4z M160.4,96.4c0-0.3,0.1-0.7,0.1-1 c0.5-3.8,10.3-6.9,21.4-6.9c8.6,0,15.1,2,15.8,4.9c0.3,1.2,0.5,2.4,0.6,3.6c0,0.6,0,1.2,0,1.8c-0.4,9.7-8.1,17.6-17.9,18.2 c-9.7,0.5-18-6.2-19.7-15.4c-0.2-0.8-0.3-1.7-0.3-2.5C160.3,98.2,160.3,97.3,160.4,96.4z"></path>
      </g>
    </g>
    <path class="logo-hair" d="M195.2,27.9c-5.2-6-11.7-10.7-19-13.9c-3-1.8-6.1-4.2-7.4-7.8c-0.1-0.2-0.3-0.3-0.5-0.3 c-0.2,0-0.4,0.2-0.4,0.4c0,0.1-0.2,1.8,0.2,4.1c-3.5-2-7.3-4.7-8.8-9C159.2,1.1,159,1,158.7,1c-0.2,0-0.4,0.2-0.4,0.4 c0,0.2-0.2,2.8,0.5,6.3c-2.6-2.1-4.7-4.6-6.4-7.5C152.4,0,152.2,0,152,0c-0.2,0-0.4,0-0.5,0.2c-1.6,2.9-3.8,5.4-6.3,7.5 c0.8-3.5,0.5-6.1,0.5-6.2c0-0.2-0.2-0.4-0.4-0.4c-0.2,0-0.4,0.1-0.5,0.3c-1.5,4.3-5.3,7-8.8,9c0.3-2.3,0.2-4,0.2-4.1 c0-0.2-0.2-0.4-0.4-0.4c-0.2,0-0.4,0.1-0.5,0.3c-1.3,3.6-4.4,6-7.4,7.8c-7.3,3.3-13.8,8-19,13.9C97.6,40.6,93,58.1,95.5,78.5 c0,0.1,0.1,0.2,0.2,0.3c0.1,0.1,0.2,0.1,0.3,0.1c0,0,0,0,0.1,0l2.8-0.4c0.2,0,0.4-0.2,0.4-0.4c0-0.2,0-0.5,0-1 c-0.5-22.3,5.6-33.3,10.8-38.7c3.8-3.9,8.6-6.3,14.2-7.1c0.4,0,1.1-0.1,1.9-0.1c4,0,11.6,1.3,17.6,9.7c0.1,0.1,0.2,0.2,0.4,0.2 c0,0,0.1,0,0.1,0c0.2,0,0.3-0.2,0.3-0.4c0-0.1,0.2-2.1-0.5-5c3.1,2.2,5.7,5,7.6,8.4c0,0,0,0,0,0c0,0,0.1,0.1,0.1,0.1c0,0,0,0,0,0 c0,0,0.1,0,0.1,0.1c0,0,0,0,0,0c0,0,0,0,0,0c0,0,0,0,0,0c0,0,0,0,0,0c0,0,0,0,0,0c0,0,0,0,0,0c0.2,0,0.4,0,0.5-0.2 c1.9-3.4,4.5-6.2,7.5-8.4c-0.8,2.9-0.5,4.9-0.5,5c0,0.2,0.2,0.3,0.3,0.4c0,0,0.1,0,0.1,0c0.1,0,0.3-0.1,0.4-0.2 c5.9-8.4,13.6-9.7,17.6-9.7c0.8,0,1.5,0.1,1.9,0.1c5.7,0.9,10.4,3.2,14.2,7.1c5.2,5.4,11.3,16.4,10.8,38.7c0,0.5,0,0.9,0,1 c0,0.2,0.2,0.4,0.4,0.4l2.8,0.4c0,0,0,0,0.1,0c0.1,0,0.2,0,0.3-0.1c0.1-0.1,0.2-0.2,0.2-0.3C210.9,58.1,206.4,40.6,195.2,27.9z"></path>
  </g>
  <g>
    <g>
      <path class="logo-text" d="M45.7,148.3c0,1.3-1,2.4-2.4,2.4h-1.9l-7.8,26.7c-0.7,2.4-3.8,2.4-4.5,0l-5.9-20.2l-5.9,20.2 c-0.7,2.4-3.8,2.5-4.6,0l-8-26.7H2.4c-1.3,0-2.4-1.1-2.4-2.4s1-2.4,2.4-2.4c2.7,0,5.4,0,8.2,0c1.4,0,2.4,1.1,2.4,2.4 s-1,2.4-2.4,2.4H9.6l5.4,17.8l5.9-20.3c0.7-2.4,3.8-2.4,4.6,0l5.9,20.3l5.1-17.7h-1.3c-1.4,0-2.4-1.1-2.4-2.4s1-2.4,2.4-2.4 c2.7,0,5.5,0,8.2,0C44.7,145.9,45.7,147,45.7,148.3z"></path>
      <path class="logo-text" d="M87.8,176.4c0,1.3-1,2.3-2.3,2.3H77c-1.3,0-2.4-1.1-2.4-2.3c0-1.3,1.1-2.4,2.4-2.4h1l-2.5-5.5H62.3l-2.5,5.5 h1c1.3,0,2.3,1.1,2.3,2.4c0,1.3-1.1,2.3-2.3,2.3h-8.5c-1.3,0-2.3-1.1-2.3-2.3c0-1.3,1-2.4,2.3-2.4h2.3l2.5-5.5h-0.2 c-1.3,0-2.3-1-2.3-2.4c0-1.3,1-2.3,2.3-2.3h2.4l6-13.4h-0.5c-1.3,0-2.3-1-2.3-2.3c0-1.3,1-2.4,2.3-2.4h8.5c1.3,0,2.4,1.1,2.4,2.4 c0,1.3-1,2.3-2.4,2.3h-0.5l6,13.4H81c1.3,0,2.3,1.1,2.3,2.3c0,1.3-1,2.4-2.3,2.4h-0.2l2.5,5.5h2.3C86.8,174,87.8,175.1,87.8,176.4 z M73.4,163.8l-4.5-10.2l-4.5,10.2H73.4z"></path>
      <path class="logo-text" d="M135.2,176.4c0,1.3-1.1,2.3-2.4,2.3h-8.3c-1.3,0-2.4-1-2.4-2.3c0-1.3,1.1-2.4,2.4-2.4h1.7v-18.6l-7.1,9.5 c-0.9,1.2-2.8,1.3-3.8,0.1L107,155v19.1h1.7c1.3,0,2.4,1,2.4,2.4c0,1.3-1,2.3-2.4,2.3h-8.2c-1.3,0-2.3-1-2.3-2.3 c0-1.3,1-2.4,2.3-2.4h1.7v-23.3h-1.7c-1.3,0-2.3-1-2.3-2.4c0-1.3,1-2.3,2.3-2.3h4c0.7,0,1.4,0.3,1.8,0.8l10.8,12.9l9.5-12.7 c0.5-0.7,1.1-1,2-1h4.2c1.3,0,2.4,1,2.4,2.3c0,1.3-1.1,2.4-2.4,2.4H131v23.3h1.9C134.2,174.1,135.2,175.1,135.2,176.4z"></path>
      <path class="logo-text" d="M179.6,169.4c0,5.2-4.2,9.4-9.4,9.4H150c-1.3,0-2.3-1.1-2.3-2.3c0-1.3,1.1-2.4,2.3-2.4h2.2v-9.3H150 c-1.3,0-2.3-1-2.3-2.3c0-1.3,1.1-2.4,2.3-2.4h2.2v-9.4H150c-1.3,0-2.3-1-2.3-2.4c0-1.3,1.1-2.3,2.3-2.3h18.8 c5.2,0,9.4,4.3,9.4,9.5c0,2.6-1.2,5.1-3.4,6.5C177.7,163.4,179.6,166.1,179.6,169.4z M156.9,160h11.9c2.6,0,4.7-2.1,4.7-4.6 c0-2.6-2.1-4.8-4.7-4.8h-11.9V160z M174.8,169.4c0-2.5-2.1-4.7-4.6-4.7h-1.3h-11.9v9.3h13.2C172.7,174,174.8,172,174.8,169.4z"></path>
      <path class="logo-text" d="M224.1,176.4c0,1.3-1,2.3-2.3,2.3h-8.5c-1.3,0-2.4-1.1-2.4-2.3c0-1.3,1.1-2.4,2.4-2.4h1l-2.5-5.5h-13.3 l-2.5,5.5h1c1.3,0,2.4,1.1,2.4,2.4c0,1.3-1.1,2.3-2.4,2.3h-8.5c-1.3,0-2.3-1.1-2.3-2.3c0-1.3,1-2.4,2.3-2.4h2.3l2.5-5.5h-0.2 c-1.3,0-2.4-1-2.4-2.4c0-1.3,1-2.3,2.4-2.3h2.3l6-13.4H201c-1.3,0-2.4-1-2.4-2.3c0-1.3,1-2.4,2.4-2.4h8.5c1.3,0,2.4,1.1,2.4,2.4 c0,1.3-1,2.3-2.4,2.3H209l6,13.4h2.3c1.3,0,2.4,1.1,2.4,2.3c0,1.3-1,2.4-2.4,2.4H217l2.5,5.5h2.3 C223.1,174,224.1,175.1,224.1,176.4z M209.8,163.8l-4.5-10.2l-4.5,10.2H209.8z"></path>
      <path class="logo-text" d="M245.1,178.8c-21.5,0-21.5-32.9,0-32.9h11.9c1.3,0,2.4,1.1,2.4,2.3v4.9c0,1.3-1,2.4-2.4,2.4 c-1.3,0-2.3-1.1-2.3-2.4v-2.5h-9.5c-15.3,0-15.3,23.4,0,23.4h11.9c1.3,0,2.4,1.1,2.4,2.4c0,1.3-1,2.3-2.4,2.3H245.1z"></path>
      <path class="logo-text" d="M304,176.4c0,1.3-1.1,2.3-2.4,2.3h-9.1c-1.3,0-2.3-1.1-2.3-2.3c0-1.3,1.1-2.4,2.3-2.4h1.9v-9.5h-15.7v9.5h2.2 c1.3,0,2.4,1,2.4,2.4c0,1.3-1,2.3-2.4,2.3h-9c-1.3,0-2.3-1.1-2.3-2.3c0-1.3,1-2.4,2.3-2.4h2.2v-9.5h-2.2c-1.3,0-2.3-1-2.3-2.3 c0-1.3,1-2.3,2.3-2.3h2.2v-9.3h-2.2c-1.3,0-2.3-1-2.3-2.4c0-1.3,1-2.3,2.3-2.3h9c1.3,0,2.4,1.1,2.4,2.3c0,1.3-1,2.4-2.4,2.4h-2.2 v9.3h15.7v-9.3h-2.2c-1.3,0-2.4-1-2.4-2.4c0-1.3,1-2.3,2.4-2.3h9c1.3,0,2.4,1.1,2.4,2.3c0,1.3-1,2.4-2.4,2.4h-2.2v9.3h2.2 c1.3,0,2.3,1,2.3,2.3c0,1.3-1,2.3-2.3,2.3h-2.2v9.5h2.5C302.9,174.1,304,175.1,304,176.4z"></path>
    </g>
    <g>
      <path class="logo-text" d="M48.6,219.7l-0.9,0l-3.3-9.7l-3.1,9.7l-0.9,0L37.1,205h2.4l1.8,9.2l2.8-9.3h0.8l2.9,9.2l1.7-9.1h2.3 L48.6,219.7z"></path>
      <path class="logo-text" d="M59.2,219.6V205h7.2v2.1h-4.9v4h4.4v2h-4.4v4.4h4.9v2.1H59.2z"></path>
      <path class="logo-text" d="M77.5,219.7c-0.9,0-2.1-0.1-3-0.2v-14.4c0.9-0.1,2.1-0.2,2.9-0.2c3.4,0,4.9,1.9,4.9,3.8 c0,1.5-0.7,2.7-2.1,3.4c1.6,0.6,2.4,1.9,2.4,3.5C82.6,217.9,80.9,219.7,77.5,219.7z M77.8,206.9c-0.3,0-0.7,0-1,0.1v4.3 c0.2,0,0.6,0,1,0c1.6,0,2.4-0.9,2.4-2.2C80.1,207.7,79.2,206.9,77.8,206.9z M77.7,213c-0.3,0-0.8,0-1,0.1v4.6 c0.3,0,0.7,0.1,1.2,0.1c1.5,0,2.4-0.8,2.4-2.4C80.3,214,79.3,213,77.7,213z"></path>
      <path class="logo-text" d="M102.8,219.7c-1.1,0-2-0.1-3-0.2v-14.5c1-0.1,1.9-0.2,2.9-0.2c4.5,0,6.8,3.1,6.8,7.3 C109.6,216.5,107.3,219.7,102.8,219.7z M103.1,206.9c-0.4,0-0.7,0-1,0.1v10.6c0.3,0,0.6,0.1,1.1,0.1c2.6,0,4-2.1,4-5.5 C107.2,209,105.7,206.9,103.1,206.9z"></path>
      <path class="logo-text" d="M117.6,219.6V205h7.2v2.1h-4.9v4h4.4v2h-4.4v4.4h4.9v2.1H117.6z"></path>
      <path class="logo-text" d="M137.5,219.8h-1l-4.8-14.8h2.4l2.9,9.9l2.8-9.9h2.4L137.5,219.8z"></path>
      <path class="logo-text" d="M149.6,219.6V205h7.2v2.1h-4.9v4h4.4v2h-4.4v4.4h4.9v2.1H149.6z"></path>
      <path class="logo-text" d="M164.9,219.6V205h2.2v12.5h4.7v2.1H164.9z"></path>
      <path class="logo-text" d="M183.6,219.8c-3.3,0-5.4-3.3-5.4-7.5c0-4.2,2.1-7.5,5.5-7.5c3.3,0,5.4,3.2,5.4,7.5 C189.2,216.5,187,219.8,183.6,219.8z M183.7,206.8c-1.9,0-3.1,2.2-3.1,5.5s1.2,5.6,3.1,5.6c1.9,0,3.1-2.3,3.1-5.6 S185.6,206.8,183.7,206.8z"></path>
      <path class="logo-text" d="M200.4,214.7c-0.3,0-0.6,0-0.9,0v4.9h-2.3v-14.5c0.9-0.1,1.8-0.2,2.9-0.2c3.6,0,5.2,2.3,5.2,4.9 C205.3,212.4,203.6,214.7,200.4,214.7z M200.4,206.9c-0.4,0-0.6,0-1,0.1v5.7c0.3,0,0.6,0.1,0.9,0.1c1.7,0,2.7-1.1,2.7-2.9 C203,208.1,202,206.9,200.4,206.9z"></path>
      <path class="logo-text" d="M222.1,219.6l-0.2-8.6l-3.2,6.3h-0.4l-3.2-6.3l-0.1,8.6h-2.2l0.5-14.7l0.8,0l4.6,8.8l4.4-8.8l0.8,0l0.5,14.7 H222.1z"></path>
      <path class="logo-text" d="M232.6,219.6V205h7.2v2.1h-4.9v4h4.4v2h-4.4v4.4h4.9v2.1H232.6z"></path>
      <path class="logo-text" d="M256.5,219.7l-6.4-9.1v9h-2.2v-14.7l0.7-0.1l6.3,9V205h2.2v14.7L256.5,219.7z"></path>
      <path class="logo-text" d="M270.4,207.1v12.5h-2.2v-12.5h-3.3V205h8.9v2.1H270.4z"></path>
    </g>
    <g>
      <path class="logo-text" d="M23,219.2l-5.7-6.9l5.7-6.9l1.8,1.8l-4.3,5.2l4.3,5.2L23,219.2z"></path>
    </g>
    <g>
      <path class="logo-text" d="M287.8,205.4l5.7,6.9l-5.7,6.9l-1.8-1.8l4.3-5.2l-4.3-5.2L287.8,205.4z"></path>
    </g>
  </g>
</svg>
